<?xml version="1.0" standalone="no"?>
<!DOCTYPE svg PUBLIC "-//W3C//DTD SVG 20010904//EN"
 "http://www.w3.org/TR/2001/REC-SVG-20010904/DTD/svg10.dtd">
<svg version="1.0" xmlns="http://www.w3.org/2000/svg"
 width="2015.000000pt" height="387.000000pt" viewBox="0 0 2015.000000 387.000000"
 preserveAspectRatio="xMidYMid meet">

<g transform="translate(0.000000,387.000000) scale(0.100000,-0.100000)"
fill="#000000" stroke="none">
<path d="M5798 3858 c-21 -5 -57 -27 -82 -49 -81 -72 -77 -20 -74 -929 l3
-805 28 -80 c64 -182 211 -348 380 -430 157 -75 155 -75 926 -75 455 0 698 4
733 11 94 19 193 74 267 147 82 81 125 155 151 258 36 140 24 229 -42 300 -52
56 -108 78 -191 72 -119 -7 -188 -77 -212 -214 -15 -87 -25 -100 -89 -109 -22
-3 -320 -5 -661 -3 -607 3 -621 3 -665 24 -57 27 -117 87 -144 144 -21 44 -21
57 -26 821 l-5 775 -27 41 c-62 94 -160 130 -270 101z"/>
<path d="M500 3819 c-289 -43 -518 -328 -496 -619 11 -150 73 -286 181 -395
91 -91 157 -120 510 -223 1004 -294 1212 -355 1235 -367 75 -39 102 -128 60
-202 -12 -22 -36 -48 -53 -59 -31 -18 -68 -19 -907 -24 -860 -5 -876 -5 -915
-26 -77 -39 -125 -143 -110 -234 9 -56 62 -129 110 -154 39 -21 52 -21 928
-24 980 -3 953 -4 1086 60 91 44 216 169 259 258 45 93 63 172 63 275 0 108
-19 183 -69 279 -47 90 -155 200 -238 244 -41 21 -315 106 -815 252 -415 121
-771 228 -791 236 -62 27 -82 56 -86 127 -4 61 -3 63 36 107 l40 45 883 5 884
5 48 28 c149 88 146 308 -5 389 l-43 23 -870 1 c-478 1 -895 -2 -925 -7z"/>
<path d="M3435 3819 c-230 -35 -441 -191 -545 -404 -69 -142 -70 -145 -70
-756 0 -510 1 -551 20 -623 66 -260 292 -476 553 -530 64 -14 167 -16 662 -16
657 0 666 1 810 70 150 73 273 196 345 345 70 146 71 160 68 785 l-3 555 -28
80 c-68 193 -210 352 -390 435 -139 65 -124 64 -772 66 -324 1 -617 -2 -650
-7z m1241 -481 c59 -31 98 -73 128 -138 20 -44 21 -59 21 -545 0 -558 3 -533
-72 -615 -21 -24 -60 -54 -88 -66 l-50 -24 -565 0 -565 0 -50 24 c-60 28 -127
99 -143 154 -9 28 -12 184 -12 536 0 538 -1 529 56 603 28 36 99 82 147 94 18
4 282 7 587 6 l555 -2 51 -27z"/>
<path d="M14705 3819 c-287 -43 -535 -272 -602 -556 -16 -70 -18 -130 -18
-613 0 -578 1 -589 57 -719 65 -149 206 -296 352 -366 160 -76 158 -76 856
-73 l615 3 80 27 c115 39 198 92 290 183 91 92 144 175 183 290 l27 80 3 551
c3 631 3 638 -74 794 -40 81 -61 109 -143 191 -79 79 -111 103 -181 137 -160
78 -133 76 -795 78 -324 1 -617 -2 -650 -7z m1231 -476 c67 -36 101 -70 131
-131 l28 -57 0 -500 c0 -558 3 -533 -72 -615 -21 -24 -60 -54 -88 -66 l-50
-24 -565 0 -565 0 -50 24 c-56 26 -117 88 -140 142 -23 55 -23 1027 0 1081 33
79 108 144 188 164 18 4 282 7 587 6 551 -2 555 -2 596 -24z"/>
<path d="M11845 3810 c-260 -53 -493 -281 -555 -544 -20 -83 -21 -111 -18
-639 l3 -552 27 -80 c40 -116 92 -199 183 -290 91 -91 174 -143 290 -183 l80
-27 693 -3 c453 -2 713 1 750 8 180 33 358 191 411 364 49 161 35 264 -49 339
-84 76 -187 85 -278 23 -58 -38 -89 -94 -101 -176 -14 -109 46 -100 -690 -100
-407 0 -649 4 -673 10 -53 15 -118 68 -153 125 l-30 48 -3 509 c-3 500 -2 508
19 558 24 55 88 120 146 147 35 17 84 18 685 18 l646 0 25 -23 c19 -18 26 -37
30 -82 6 -75 43 -141 99 -178 57 -37 166 -44 225 -13 91 46 142 146 128 253
-27 220 -155 390 -354 470 l-56 23 -720 2 c-396 0 -738 -3 -760 -7z"/>
<path d="M17452 3800 c-128 -34 -225 -92 -332 -200 -103 -102 -147 -173 -191
-305 l-24 -70 -3 -801 -3 -800 29 -55 c87 -167 327 -170 412 -4 l25 49 5 776
5 775 22 41 c12 23 43 60 69 83 78 68 101 72 485 69 l334 -3 5 -880 c6 -986
-1 -909 80 -977 111 -96 275 -71 358 55 l27 41 5 780 5 781 30 53 c32 59 66
91 129 125 40 21 52 22 398 25 l358 3 2 -715 3 -715 233 350 232 350 0 594 0
595 -608 0 c-566 0 -614 -1 -683 -19 -41 -11 -81 -21 -89 -23 -9 -2 -16 6 -18
20 l-3 22 -612 -1 c-569 0 -617 -1 -685 -19z"/>
<path d="M6100 714 l0 -176 -39 34 c-51 47 -122 65 -191 48 -105 -25 -179
-114 -200 -242 -37 -216 94 -398 269 -374 54 7 122 46 147 83 l19 28 5 -50 c5
-50 5 -50 43 -53 l37 -3 0 440 0 441 -45 0 -45 0 0 -176z m-71 -191 c14 -11
36 -39 49 -64 21 -40 23 -55 20 -155 -3 -101 -5 -114 -30 -152 -34 -51 -79
-75 -139 -76 -102 0 -170 90 -172 226 -1 82 14 138 50 185 53 71 152 87 222
36z"/>
<path d="M7280 450 l0 -440 34 0 c32 0 34 1 40 49 l6 48 43 -42 c69 -70 163
-83 261 -36 92 45 146 152 146 289 0 91 -17 158 -56 214 -78 112 -241 128
-340 33 l-44 -42 0 184 0 183 -45 0 -45 0 0 -440z m355 76 c13 -9 37 -37 52
-63 26 -44 28 -57 28 -148 0 -84 -4 -107 -22 -142 -56 -105 -176 -130 -264
-56 -47 40 -59 79 -59 190 0 110 16 158 66 205 50 47 139 53 199 14z"/>
<path d="M14300 715 c0 -96 -3 -175 -8 -175 -4 0 -13 9 -20 20 -22 35 -91 63
-157 63 -99 0 -180 -56 -227 -158 -19 -42 -23 -67 -23 -155 0 -89 4 -113 24
-158 72 -159 267 -201 376 -81 19 21 37 39 40 39 3 0 5 -22 5 -50 l0 -50 41 0
42 0 -6 83 c-4 45 -7 243 -7 440 l0 357 -40 0 -40 0 0 -175z m-83 -186 c54
-34 75 -88 77 -194 1 -120 -8 -158 -51 -206 -92 -102 -237 -57 -278 86 -35
119 0 258 78 313 43 30 126 31 174 1z"/>
<path d="M3511 733 c34 -65 90 -167 123 -228 l61 -110 5 -190 5 -190 43 -3 42
-3 0 183 1 183 133 235 134 235 -46 3 c-24 2 -49 -1 -53 -5 -5 -5 -54 -97
-108 -205 l-99 -196 -101 204 -100 204 -51 0 -51 0 62 -117z"/>
<path d="M11970 838 c0 -7 45 -197 101 -421 l101 -408 46 3 46 3 73 270 c40
149 82 313 95 365 12 52 24 86 25 75 15 -89 44 -218 100 -448 l65 -268 45 3
46 3 113 410 c63 226 114 413 114 418 0 4 -20 7 -44 7 -37 0 -45 -4 -50 -22
-34 -121 -166 -651 -166 -667 0 -47 -17 -16 -28 52 -7 39 -43 198 -80 352
l-68 280 -46 3 c-38 2 -47 0 -52 -15 -19 -64 -157 -599 -166 -646 -7 -32 -13
-57 -15 -55 -2 2 -18 67 -34 143 -16 77 -53 236 -80 353 -28 118 -51 216 -51
218 0 2 -20 4 -45 4 -29 0 -45 -4 -45 -12z"/>
<path d="M15480 429 l0 -420 43 3 42 3 3 418 2 417 -45 0 -45 0 0 -421z"/>
<path d="M15660 815 l0 -35 125 0 125 0 0 -385 0 -385 45 0 45 0 0 385 0 385
125 0 125 0 0 35 0 35 -295 0 -295 0 0 -35z"/>
<path d="M9076 824 c-22 -21 -20 -60 4 -84 51 -51 125 15 85 76 -18 28 -65 33
-89 8z"/>
<path d="M4303 616 c-130 -42 -195 -141 -197 -296 -1 -114 21 -178 84 -241
107 -107 266 -104 376 5 63 64 84 123 84 235 0 94 -11 136 -53 198 -59 88
-191 133 -294 99z m173 -91 c51 -39 77 -97 82 -186 6 -95 -16 -166 -64 -214
-127 -127 -302 -12 -298 195 3 110 47 194 119 227 44 20 120 9 161 -22z"/>
<path d="M6545 621 c-130 -32 -205 -132 -213 -288 -8 -140 41 -244 140 -298
45 -25 64 -29 128 -29 62 -1 84 4 126 26 59 31 98 73 128 138 31 68 30 225 -3
297 -53 119 -182 184 -306 154z m149 -90 c45 -28 86 -110 93 -189 14 -154 -87
-288 -203 -269 -118 19 -188 164 -155 318 31 143 154 208 265 140z"/>
<path d="M8711 620 c-128 -30 -172 -182 -78 -271 12 -11 57 -38 99 -60 42 -21
84 -49 92 -61 20 -28 21 -87 1 -115 -32 -45 -135 -54 -205 -18 -30 16 -31 16
-45 -17 l-14 -33 42 -19 c61 -29 178 -27 234 2 49 25 82 68 90 116 14 91 -34
164 -139 211 -87 38 -118 69 -118 116 0 29 7 43 31 63 35 30 81 33 144 11 22
-8 41 -15 42 -15 0 0 6 14 12 32 13 38 8 43 -62 58 -54 11 -77 11 -126 0z"/>
<path d="M9556 618 c-21 -6 -57 -29 -81 -52 l-43 -41 -7 42 c-6 42 -7 43 -47
43 -40 0 -40 0 -34 -31 3 -17 6 -153 6 -301 l0 -269 43 3 42 3 5 215 c4 185 8
219 23 245 30 48 65 69 127 73 45 3 60 0 83 -18 57 -45 62 -65 65 -303 l4
-218 41 3 42 3 0 210 c0 243 -9 289 -65 345 -54 54 -121 70 -204 48z"/>
<path d="M10150 615 c-96 -31 -160 -119 -181 -245 -21 -131 22 -255 111 -319
72 -52 203 -64 307 -27 31 11 37 18 35 37 -4 35 -15 41 -48 28 -16 -6 -63 -12
-104 -13 -65 -1 -81 3 -122 26 -51 31 -82 82 -94 156 l-7 42 208 0 208 0 -6
78 c-5 78 -28 143 -66 186 -47 53 -160 77 -241 51z m148 -75 c37 -23 71 -88
72 -137 l0 -33 -160 0 -160 0 6 28 c19 76 49 122 96 145 45 23 106 21 146 -3z"/>
<path d="M10699 616 c-81 -29 -119 -76 -119 -149 0 -86 35 -126 163 -186 99
-47 124 -110 69 -172 -37 -42 -95 -49 -174 -21 l-57 20 -10 -30 c-6 -17 -11
-33 -11 -34 0 -10 79 -35 125 -40 151 -18 269 91 235 217 -16 57 -46 86 -145
138 -64 32 -94 54 -103 74 -42 87 60 156 166 112 34 -15 38 -15 49 1 26 35 16
52 -39 69 -62 18 -101 18 -149 1z"/>
<path d="M11167 618 c-84 -23 -142 -119 -118 -199 14 -47 67 -94 146 -130 33
-15 70 -38 82 -51 46 -49 38 -113 -19 -148 -41 -25 -94 -25 -157 -1 l-50 19
-12 -31 c-11 -26 -10 -31 6 -43 34 -25 125 -37 190 -25 103 19 155 76 155 170
0 83 -27 117 -139 175 -96 49 -121 74 -121 118 0 68 83 105 170 74 49 -17 55
-14 65 26 6 25 4 28 -46 42 -59 18 -96 19 -152 4z"/>
<path d="M13215 621 c-78 -19 -135 -69 -174 -151 -23 -49 -26 -67 -26 -165 0
-100 3 -115 27 -160 31 -59 57 -84 118 -116 38 -20 59 -23 135 -23 50 1 108 7
130 15 35 13 40 18 38 43 -3 38 -6 40 -50 25 -54 -18 -171 -17 -208 3 -58 31
-97 91 -109 166 l-6 42 205 0 205 0 0 63 c0 182 -127 296 -285 258z m126 -84
c37 -24 63 -71 73 -129 l7 -38 -161 0 c-180 0 -178 -1 -145 77 43 102 147 143
226 90z"/>
<path d="M14712 612 c-117 -42 -184 -150 -186 -297 -1 -109 23 -175 84 -236
103 -103 262 -104 371 -2 66 61 91 129 92 243 0 72 -4 94 -28 148 -45 100
-112 148 -223 157 -41 4 -72 0 -110 -13z m140 -62 c44 -13 89 -62 113 -124 13
-35 16 -65 13 -130 -5 -106 -38 -168 -108 -204 -126 -65 -251 42 -251 216 0
89 16 142 58 192 47 54 102 70 175 50z"/>
<path d="M4792 388 c3 -199 6 -228 24 -268 64 -140 233 -160 342 -42 l32 36 0
-52 0 -52 40 0 40 0 0 300 0 300 -44 0 -45 0 -3 -207 c-3 -188 -5 -211 -24
-243 -29 -50 -78 -80 -130 -80 -60 0 -88 15 -115 64 -23 39 -24 52 -27 254
l-4 212 -45 0 -45 0 4 -222z"/>
<path d="M7952 383 c3 -216 4 -231 27 -276 58 -119 213 -141 316 -46 41 38 43
39 49 17 3 -13 6 -33 6 -46 0 -21 4 -23 38 -20 35 3 37 5 36 36 0 17 -1 151
-2 297 l-2 265 -45 0 -45 0 0 -206 c0 -228 -6 -255 -63 -296 -42 -30 -125 -36
-161 -13 -55 37 -61 60 -64 298 l-4 217 -45 0 -45 0 4 -227z"/>
<path d="M9072 313 l3 -298 43 -3 42 -3 0 300 0 301 -45 0 -45 0 2 -297z"/>
<path d="M11536 124 c-27 -27 -31 -63 -9 -92 40 -53 113 -28 113 38 0 57 -67
92 -104 54z"/>
<path d="M16321 114 c-12 -15 -21 -34 -21 -44 0 -28 39 -70 66 -70 33 0 64 34
64 70 0 64 -71 92 -109 44z"/>
</g>
</svg>
